<svg viewBox="-100 -100 10200 10200" xmlns="http://www.w3.org/2000/svg">
<path d="M0,0 l10000,0 l0,10000 l-10000,0 z" fill="white"/>
<path d="M4128,9617 l415,0 l0,308 l-415,0 z" fill="#fe00ff" stroke="black" stroke-width="5"/>
<path d="M0,6587 l489,0 l0,3413 l-489,0 z" fill="#7100ff" stroke="black" stroke-width="5"/>
<path d="M1658,4442 l301,0 l0,1901 l-301,0 z" fill="#ff00fe" stroke="black" stroke-width="5"/>
<path d="M2035,681 l763,0 l0,1573 l-763,0 z" fill="#d200ff" stroke="black" stroke-width="5"/>
<path d="M2022,500 l1923,0 l0,181 l-1923,0 z" fill="#1e00ff" stroke="black" stroke-width="5"/>
<path d="M6125,6905 l515,0 l0,1410 l-515,0 z" fill="#ff00fe" stroke="black" stroke-width="5"/>
<path d="M6135,85 l1108,0 l0,2013 l-1108,0 z" fill="#ff00fe" stroke="black" stroke-width="5"/>
<path d="M749,5349 l845,0 l0,1231 l-845,0 z" fill="#3500ff" stroke="black" stroke-width="5"/>
<path d="M7996,6070 l1301,0 l0,1701 l-1301,0 z" fill="#ff00fe" stroke="black" stroke-width="5"/>
<path d="M5608,578 l303,0 l0,102 l-303,0 z" fill="#ff00fe" stroke="black" stroke-width="5"/>
<path d="M2799,682 l715,0 l0,2095 l-715,0 z" fill="#2900ff" stroke="black" stroke-width="5"/>
<path d="M899,9198 l601,0 l0,301 l-601,0 z" fill="#ff00fa" stroke="black" stroke-width="5"/>
<path d="M7882,3825 l1101,0 l0,1401 l-1101,0 z" fill="#4700ff" stroke="black" stroke-width="5"/>
<path d="M3427,7759 l506,0 l0,602 l-506,0 z" fill="#fe00ff" stroke="black" stroke-width="5"/>
<path d="M6617,8510 l101,0 l0,101 l-101,0 z" fill="#ff00d4" stroke="black" stroke-width="5"/>
<path d="M3399,3479 l481,0 l0,2352 l-481,0 z" fill="#6000ff" stroke="black" stroke-width="5"/>
<path d="M3975,4777 l1717,0 l0,713 l-1717,0 z" fill="#ff00fe" stroke="black" stroke-width="5"/>
<path d="M9641,9653 l301,0 l0,301 l-301,0 z" fill="#ff00fa" stroke="black" stroke-width="5"/>
<path d="M1820,499 l201,0 l0,301 l-201,0 z" fill="#ff00fe" stroke="black" stroke-width="5"/>
<path d="M4414,5797 l1354,0 l0,471 l-1354,0 z" fill="#8300ff" stroke="black" stroke-width="5"/>
<path d="M6900,2856 l908,0 l0,909 l-908,0 z" fill="#fe00ff" stroke="black" stroke-width="5"/>
<path d="M2025,2254 l301,0 l0,601 l-301,0 z" fill="#ff00fd" stroke="black" stroke-width="5"/>
<path d="M7764,5288 l1601,0 l0,701 l-1601,0 z" fill="#ff00fe" stroke="black" stroke-width="5"/>
<path d="M4482,6268 l1411,0 l0,2113 l-1411,0 z" fill="#fe00ff" stroke="black" stroke-width="5"/>
<path d="M490,8661 l1722,0 l0,537 l-1722,0 z" fill="#8500ff" stroke="black" stroke-width="5"/>
<path d="M2397,4778 l1001,0 l0,1801 l-1001,0 z" fill="#ff00fe" stroke="black" stroke-width="5"/>
<path d="M7128,7382 l713,0 l0,2618 l-713,0 z" fill="#f400ff" stroke="black" stroke-width="5"/>
<path d="M529,7543 l825,0 l0,1117 l-825,0 z" fill="#f900ff" stroke="black" stroke-width="5"/>
<path d="M5147,2609 l1301,0 l0,1701 l-1301,0 z" fill="#ff00fe" stroke="black" stroke-width="5"/>
<path d="M2212,8610 l1906,0 l0,1321 l-1906,0 z" fill="#eb00ff" stroke="black" stroke-width="5"/>
<path d="M5768,5535 l301,0 l0,701 l-301,0 z" fill="#ff00fe" stroke="black" stroke-width="5"/>
<path d="M6716,7825 l401,0 l0,601 l-401,0 z" fill="#ff00fd" stroke="black" stroke-width="5"/>
<path d="M3880,5537 l1867,0 l0,259 l-1867,0 z" fill="#1b00ff" stroke="black" stroke-width="5"/>
<path d="M4857,816 l1235,0 l0,925 l-1235,0 z" fill="#c300ff" stroke="black" stroke-width="5"/>
<path d="M3514,762 l1343,0 l0,1031 l-1343,0 z" fill="#4400ff" stroke="black" stroke-width="5"/>
<path d="M0,1928 l749,0 l0,4658 l-749,0 z" fill="#ff00fe" stroke="black" stroke-width="5"/>
<path d="M3980,2595 l1167,0 l0,2182 l-1167,0 z" fill="#9300ff" stroke="black" stroke-width="5"/>
<path d="M3640,1793 l1301,0 l0,801 l-1301,0 z" fill="#ff00fe" stroke="black" stroke-width="5"/>
<path d="M7845,1148 l2101,0 l0,1901 l-2101,0 z" fill="#ff00fe" stroke="black" stroke-width="5"/>
<path d="M7809,3050 l2191,0 l0,775 l-2191,0 z" fill="#2c00ff" stroke="black" stroke-width="5"/>
<path d="M3945,12 l1657,0 l0,750 l-1657,0 z" fill="#1900ff" stroke="black" stroke-width="5"/>
<path d="M7841,7796 l1204,0 l0,1205 l-1204,0 z" fill="#fe00ff" stroke="black" stroke-width="5"/>
<path d="M489,6586 l2885,0 l0,957 l-2885,0 z" fill="#fe00ff" stroke="black" stroke-width="5"/>
<path d="M3409,5831 l1004,0 l0,1903 l-1004,0 z" fill="#7600ff" stroke="black" stroke-width="5"/>
<path d="M6826,9089 l301,0 l0,601 l-301,0 z" fill="#ff00eb" stroke="black" stroke-width="5"/>
<path d="M3178,2777 l801,0 l0,701 l-801,0 z" fill="#ff00fe" stroke="black" stroke-width="5"/>
<path d="M8636,9867 l201,0 l0,101 l-201,0 z" fill="#ff00ef" stroke="black" stroke-width="5"/>
<path d="M7323,6573 l606,0 l0,808 l-606,0 z" fill="#fe00ff" stroke="black" stroke-width="5"/>
<path d="M0,0 l3945,0 l0,499 l-3945,0 z" fill="#4300ff" stroke="black" stroke-width="5"/>
<path d="M765,4622 l401,0 l0,701 l-401,0 z" fill="#ff00fe" stroke="black" stroke-width="5"/>
<path d="M6463,3855 l601,0 l0,401 l-601,0 z" fill="#ff00fe" stroke="black" stroke-width="5"/>
<path d="M1360,7600 l1719,0 l0,1010 l-1719,0 z" fill="#ff00fe" stroke="black" stroke-width="5"/>
<path d="M4305,9790 l60,0 l0,60 l-60,0 z" fill="green"/>
<path d="M4335,9820 l0.5,-49" stroke="black" stroke-width="5"/>
<path d="M29,8198 l60,0 l0,60 l-60,0 z" fill="green"/>
<path d="M59,8228 l185.5,65.5" stroke="black" stroke-width="5"/>
<path d="M1828,5212 l60,0 l0,60 l-60,0 z" fill="green"/>
<path d="M1858,5242 l-49.5,150.5" stroke="black" stroke-width="5"/>
<path d="M2338,1087 l60,0 l0,60 l-60,0 z" fill="green"/>
<path d="M2368,1117 l48.5,350.5" stroke="black" stroke-width="5"/>
<path d="M2477,530 l60,0 l0,60 l-60,0 z" fill="green"/>
<path d="M2507,560 l476.5,30.5" stroke="black" stroke-width="5"/>
<path d="M6503,7679 l60,0 l0,60 l-60,0 z" fill="green"/>
<path d="M6533,7709 l-150.5,-99" stroke="black" stroke-width="5"/>
<path d="M6710,860 l60,0 l0,60 l-60,0 z" fill="green"/>
<path d="M6740,890 l-51,201.5" stroke="black" stroke-width="5"/>
<path d="M1438,5634 l60,0 l0,60 l-60,0 z" fill="green"/>
<path d="M1468,5664 l-296.5,300.5" stroke="black" stroke-width="5"/>
<path d="M8266,7240 l60,0 l0,60 l-60,0 z" fill="green"/>
<path d="M8296,7270 l350.5,-349.5" stroke="black" stroke-width="5"/>
<path d="M5680,548 l60,0 l0,60 l-60,0 z" fill="green"/>
<path d="M5710,578 l49.5,51" stroke="black" stroke-width="5"/>
<path d="M3214,2300 l60,0 l0,60 l-60,0 z" fill="green"/>
<path d="M3244,2330 l-87.5,-600.5" stroke="black" stroke-width="5"/>
<path d="M969,9268 l60,0 l0,60 l-60,0 z" fill="green"/>
<path d="M999,9298 l200.5,50.5" stroke="black" stroke-width="5"/>
<path d="M8352,4995 l60,0 l0,60 l-60,0 z" fill="green"/>
<path d="M8382,5025 l50.5,-499.5" stroke="black" stroke-width="5"/>
<path d="M3698,8130 l60,0 l0,60 l-60,0 z" fill="green"/>
<path d="M3728,8160 l-48,-100" stroke="black" stroke-width="5"/>
<path d="M6687,8480 l60,0 l0,60 l-60,0 z" fill="green"/>
<path d="M6717,8510 l-49.5,50.5" stroke="black" stroke-width="5"/>
<path d="M3421,5497 l60,0 l0,60 l-60,0 z" fill="green"/>
<path d="M3451,5527 l188.5,-872" stroke="black" stroke-width="5"/>
<path d="M4653,5254 l60,0 l0,60 l-60,0 z" fill="green"/>
<path d="M4683,5284 l150.5,-150.5" stroke="black" stroke-width="5"/>
<path d="M9611,9823 l60,0 l0,60 l-60,0 z" fill="green"/>
<path d="M9641,9853 l150.5,-49.5" stroke="black" stroke-width="5"/>
<path d="M1890,569 l60,0 l0,60 l-60,0 z" fill="green"/>
<path d="M1920,599 l0.5,50.5" stroke="black" stroke-width="5"/>
<path d="M5533,5909 l60,0 l0,60 l-60,0 z" fill="green"/>
<path d="M5563,5939 l-472,93.5" stroke="black" stroke-width="5"/>
<path d="M7376,3428 l60,0 l0,60 l-60,0 z" fill="green"/>
<path d="M7406,3458 l-52,-147.5" stroke="black" stroke-width="5"/>
<path d="M2195,2424 l60,0 l0,60 l-60,0 z" fill="green"/>
<path d="M2225,2454 l-49.5,100.5" stroke="black" stroke-width="5"/>
<path d="M8434,5358 l60,0 l0,60 l-60,0 z" fill="green"/>
<path d="M8464,5388 l100.5,250.5" stroke="black" stroke-width="5"/>
<path d="M4758,6442 l60,0 l0,60 l-60,0 z" fill="green"/>
<path d="M4788,6472 l399.5,852.5" stroke="black" stroke-width="5"/>
<path d="M1420,8645 l60,0 l0,60 l-60,0 z" fill="green"/>
<path d="M1450,8675 l-99,254.5" stroke="black" stroke-width="5"/>
<path d="M3367,5448 l60,0 l0,60 l-60,0 z" fill="green"/>
<path d="M3397,5478 l-499.5,200.5" stroke="black" stroke-width="5"/>
<path d="M7349,8003 l60,0 l0,60 l-60,0 z" fill="green"/>
<path d="M7379,8033 l105.5,658" stroke="black" stroke-width="5"/>
<path d="M913,8220 l60,0 l0,60 l-60,0 z" fill="green"/>
<path d="M943,8250 l-1.5,-148.5" stroke="black" stroke-width="5"/>
<path d="M5617,3479 l60,0 l0,60 l-60,0 z" fill="green"/>
<path d="M5647,3509 l150.5,-49.5" stroke="black" stroke-width="5"/>
<path d="M3184,9289 l60,0 l0,60 l-60,0 z" fill="green"/>
<path d="M3214,9319 l-49,-48.5" stroke="black" stroke-width="5"/>
<path d="M5838,5905 l60,0 l0,60 l-60,0 z" fill="green"/>
<path d="M5868,5935 l50.5,-49.5" stroke="black" stroke-width="5"/>
<path d="M6986,8195 l60,0 l0,60 l-60,0 z" fill="green"/>
<path d="M7016,8225 l-99.5,-99.5" stroke="black" stroke-width="5"/>
<path d="M5185,5736 l60,0 l0,60 l-60,0 z" fill="green"/>
<path d="M5215,5766 l-401.5,-99.5" stroke="black" stroke-width="5"/>
<path d="M5645,1095 l60,0 l0,60 l-60,0 z" fill="green"/>
<path d="M5675,1125 l-200.5,153.5" stroke="black" stroke-width="5"/>
<path d="M4404,1456 l60,0 l0,60 l-60,0 z" fill="green"/>
<path d="M4434,1486 l-248.5,-208.5" stroke="black" stroke-width="5"/>
<path d="M103,4817 l60,0 l0,60 l-60,0 z" fill="green"/>
<path d="M133,4847 l241.5,-590" stroke="black" stroke-width="5"/>
<path d="M5093,3770 l60,0 l0,60 l-60,0 z" fill="green"/>
<path d="M5123,3800 l-559.5,-114" stroke="black" stroke-width="5"/>
<path d="M4410,1963 l60,0 l0,60 l-60,0 z" fill="green"/>
<path d="M4440,1993 l-149.5,200.5" stroke="black" stroke-width="5"/>
<path d="M9015,3018 l60,0 l0,60 l-60,0 z" fill="green"/>
<path d="M9045,3048 l-149.5,-949.5" stroke="black" stroke-width="5"/>
<path d="M8960,3194 l60,0 l0,60 l-60,0 z" fill="green"/>
<path d="M8990,3224 l-85.5,213.5" stroke="black" stroke-width="5"/>
<path d="M5146,511 l60,0 l0,60 l-60,0 z" fill="green"/>
<path d="M5176,541 l-402.5,-154" stroke="black" stroke-width="5"/>
<path d="M8111,7869 l60,0 l0,60 l-60,0 z" fill="green"/>
<path d="M8141,7899 l302,499.5" stroke="black" stroke-width="5"/>
<path d="M1695,6898 l60,0 l0,60 l-60,0 z" fill="green"/>
<path d="M1725,6928 l206.5,136.5" stroke="black" stroke-width="5"/>
<path d="M3880,6602 l60,0 l0,60 l-60,0 z" fill="green"/>
<path d="M3910,6632 l1,150.5" stroke="black" stroke-width="5"/>
<path d="M7096,9259 l60,0 l0,60 l-60,0 z" fill="green"/>
<path d="M7126,9289 l-149.5,100.5" stroke="black" stroke-width="5"/>
<path d="M3748,3247 l60,0 l0,60 l-60,0 z" fill="green"/>
<path d="M3778,3277 l-199.5,-149.5" stroke="black" stroke-width="5"/>
<path d="M8606,9837 l60,0 l0,60 l-60,0 z" fill="green"/>
<path d="M8636,9867 l100.5,50.5" stroke="black" stroke-width="5"/>
<path d="M7896,6845 l60,0 l0,60 l-60,0 z" fill="green"/>
<path d="M7926,6875 l-300,102" stroke="black" stroke-width="5"/>
<path d="M2478,44 l60,0 l0,60 l-60,0 z" fill="green"/>
<path d="M2508,74 l-535.5,175.5" stroke="black" stroke-width="5"/>
<path d="M935,4992 l60,0 l0,60 l-60,0 z" fill="green"/>
<path d="M965,5022 l0.5,-49.5" stroke="black" stroke-width="5"/>
<path d="M6633,4025 l60,0 l0,60 l-60,0 z" fill="green"/>
<path d="M6663,4055 l100.5,0.5" stroke="black" stroke-width="5"/>
<path d="M1833,8376 l60,0 l0,60 l-60,0 z" fill="green"/>
<path d="M1863,8406 l356.5,-301" stroke="black" stroke-width="5"/>
<text font-size="196.116135138184" text-anchor="middle" x="4335.5" y="9839.640647298364">
0
</text>
<text font-size="196.116135138184" text-anchor="middle" x="244.5" y="8362.140647298364">
1
</text>
<text font-size="196.116135138184" text-anchor="middle" x="1808.5" y="5461.1406472983645">
2
</text>
<text font-size="196.116135138184" text-anchor="middle" x="2416.5" y="1536.1406472983645">
3
</text>
<text font-size="196.116135138184" text-anchor="middle" x="2983.5" y="659.1406472983645">
4
</text>
<text font-size="196.116135138184" text-anchor="middle" x="6382.5" y="7678.6406472983645">
5
</text>
<text font-size="196.116135138184" text-anchor="middle" x="6689" y="1160.1406472983645">
6
</text>
<text font-size="196.116135138184" text-anchor="middle" x="1171.5" y="6033.1406472983645">
7
</text>
<text font-size="196.116135138184" text-anchor="middle" x="8646.5" y="6989.1406472983645">
8
</text>
<text font-size="196.116135138184" text-anchor="middle" x="5759.5" y="697.6406472983645">
9
</text>
<text font-size="196.116135138184" text-anchor="middle" x="3156.5" y="1798.1406472983645">
10
</text>
<text font-size="196.116135138184" text-anchor="middle" x="1199.5" y="9417.140647298364">
11
</text>
<text font-size="196.116135138184" text-anchor="middle" x="8432.5" y="4594.1406472983645">
12
</text>
<text font-size="196.116135138184" text-anchor="middle" x="3680" y="8128.6406472983645">
13
</text>
<text font-size="196.116135138184" text-anchor="middle" x="6667.5" y="8629.140647298364">
14
</text>
<text font-size="196.116135138184" text-anchor="middle" x="3639.5" y="4723.6406472983645">
15
</text>
<text font-size="196.116135138184" text-anchor="middle" x="4833.5" y="5202.1406472983645">
16
</text>
<text font-size="196.116135138184" text-anchor="middle" x="9791.5" y="9872.140647298364">
17
</text>
<text font-size="196.116135138184" text-anchor="middle" x="1920.5" y="718.1406472983645">
18
</text>
<text font-size="196.116135138184" text-anchor="middle" x="5091" y="6101.1406472983645">
19
</text>
<text font-size="196.116135138184" text-anchor="middle" x="7354" y="3379.1406472983645">
20
</text>
<text font-size="196.116135138184" text-anchor="middle" x="2175.5" y="2623.1406472983645">
21
</text>
<text font-size="196.116135138184" text-anchor="middle" x="8564.5" y="5707.1406472983645">
22
</text>
<text font-size="196.116135138184" text-anchor="middle" x="5187.5" y="7393.1406472983645">
23
</text>
<text font-size="196.116135138184" text-anchor="middle" x="1351" y="8998.140647298364">
24
</text>
<text font-size="196.116135138184" text-anchor="middle" x="2897.5" y="5747.1406472983645">
25
</text>
<text font-size="196.116135138184" text-anchor="middle" x="7484.5" y="8759.640647298364">
26
</text>
<text font-size="196.116135138184" text-anchor="middle" x="941.5" y="8170.1406472983645">
27
</text>
<text font-size="196.116135138184" text-anchor="middle" x="5797.5" y="3528.1406472983645">
28
</text>
<text font-size="196.116135138184" text-anchor="middle" x="3165" y="9339.140647298364">
29
</text>
<text font-size="196.116135138184" text-anchor="middle" x="5918.5" y="5954.1406472983645">
30
</text>
<text font-size="196.116135138184" text-anchor="middle" x="6916.5" y="8194.140647298364">
31
</text>
<text font-size="196.116135138184" text-anchor="middle" x="4813.5" y="5735.1406472983645">
32
</text>
<text font-size="196.116135138184" text-anchor="middle" x="5474.5" y="1347.1406472983645">
33
</text>
<text font-size="196.116135138184" text-anchor="middle" x="4185.5" y="1346.1406472983645">
34
</text>
<text font-size="196.116135138184" text-anchor="middle" x="374.5" y="4325.6406472983645">
35
</text>
<text font-size="196.116135138184" text-anchor="middle" x="4563.5" y="3754.6406472983645">
36
</text>
<text font-size="196.116135138184" text-anchor="middle" x="4290.5" y="2262.1406472983645">
37
</text>
<text font-size="196.116135138184" text-anchor="middle" x="8895.5" y="2167.1406472983645">
38
</text>
<text font-size="196.116135138184" text-anchor="middle" x="8904.5" y="3506.1406472983645">
39
</text>
<text font-size="196.116135138184" text-anchor="middle" x="4773.5" y="455.6406472983644">
40
</text>
<text font-size="196.116135138184" text-anchor="middle" x="8443" y="8467.140647298364">
41
</text>
<text font-size="196.116135138184" text-anchor="middle" x="1931.5" y="7133.1406472983645">
42
</text>
<text font-size="196.116135138184" text-anchor="middle" x="3911" y="6851.1406472983645">
43
</text>
<text font-size="196.116135138184" text-anchor="middle" x="6976.5" y="9458.140647298364">
44
</text>
<text font-size="196.116135138184" text-anchor="middle" x="3578.5" y="3196.1406472983645">
45
</text>
<text font-size="196.116135138184" text-anchor="middle" x="8736.5" y="9986.140647298364">
46
</text>
<text font-size="196.116135138184" text-anchor="middle" x="7626" y="7045.6406472983645">
47
</text>
<text font-size="196.116135138184" text-anchor="middle" x="1972.5" y="318.1406472983644">
48
</text>
<text font-size="196.116135138184" text-anchor="middle" x="965.5" y="5041.1406472983645">
49
</text>
<text font-size="196.116135138184" text-anchor="middle" x="6763.5" y="4124.1406472983645">
50
</text>
<text font-size="196.116135138184" text-anchor="middle" x="2219.5" y="8173.6406472983645">
51
</text>
</svg>